HIERARCHY
ROOT hips
{
	OFFSET 0.000000 104.274902 0.000000
	CHANNELS 6 Xposition Yposition Zposition Xrotation Yrotation Zrotation
	JOINT spine
	{
		OFFSET 0.000000 10.181549 0.131524
		CHANNELS 6 Xposition Yposition Zposition Xrotation Yrotation Zrotation
		JOINT chest
		{
			OFFSET 0.000000 9.893990 -1.470706
			CHANNELS 3 Xrotation Yrotation Zrotation
			JOINT upperChest
			{
				OFFSET 0.000000 9.220787 -1.370637
				CHANNELS 3 Xrotation Yrotation Zrotation
				JOINT neck
				{
					OFFSET 0.000000 16.740372 -2.049022
					CHANNELS 6 Xposition Yposition Zposition Xrotation Yrotation Zrotation
					JOINT head
					{
						OFFSET 0.000000 9.617859 1.684976
						CHANNELS 6 Xposition Yposition Zposition Xrotation Yrotation Zrotation
						JOINT headEnd
						{
							OFFSET 0.000000 22.037384 7.501072
							CHANNELS 6 Xposition Yposition Zposition Xrotation Yrotation Zrotation
							End Site
							{
								OFFSET 0.000000 23.106567 -2.828246
							}
						}
					}
				}
				JOINT rightShoulder
				{
					OFFSET -4.570000 11.014877 -2.160840
					CHANNELS 6 Xposition Yposition Zposition Xrotation Yrotation Zrotation
					JOINT rightUpperArm
					{
						OFFSET -10.592867 -0.524796 -2.232105
						CHANNELS 3 Xrotation Yrotation Zrotation
						JOINT rightLowerArm
						{
							OFFSET -27.841497 0.000000 -0.000002
							CHANNELS 3 Xrotation Yrotation Zrotation
							JOINT rightHand
							{
								OFFSET -28.328812 0.000000 -0.000001
								CHANNELS 3 Xrotation Yrotation Zrotation
								JOINT rightThumbProximal
								{
									OFFSET -2.464798 -1.573990 2.681911
									CHANNELS 6 Xposition Yposition Zposition Xrotation Yrotation Zrotation
									JOINT rightThumbIntermediate
									{
										OFFSET -3.244781 -1.873383 1.873376
										CHANNELS 3 Xrotation Yrotation Zrotation
										JOINT rightThumbDistal
										{
											OFFSET -2.646263 -1.527817 1.527818
											CHANNELS 6 Xposition Yposition Zposition Xrotation Yrotation Zrotation
											JOINT rightHandThumb4
											{
												OFFSET -1.994591 -1.151581 1.151575
												CHANNELS 6 Xposition Yposition Zposition Xrotation Yrotation Zrotation
												End Site
												{
													OFFSET -1.860176 -1.142715 1.365483
												}
											}
										}
									}
								}
								JOINT rightIndexProximal
								{
									OFFSET -9.108299 -0.517883 2.259803
									CHANNELS 6 Xposition Yposition Zposition Xrotation Yrotation Zrotation
									JOINT rightIndexIntermediate
									{
										OFFSET -3.699997 0.000000 0.000000
										CHANNELS 3 Xrotation Yrotation Zrotation
										JOINT rightIndexDistal
										{
											OFFSET -2.850006 0.000000 0.000000
											CHANNELS 3 Xrotation Yrotation Zrotation
											JOINT rightHandIndex4
											{
												OFFSET -2.772194 0.000000 0.000000
												CHANNELS 3 Xrotation Yrotation Zrotation
												End Site
												{
													OFFSET -2.772202 0.000000 -0.000484
												}
											}
										}
									}
								}
								JOINT rightMiddleProximal
								{
									OFFSET -9.532501 0.000000 -0.000000
									CHANNELS 6 Xposition Yposition Zposition Xrotation Yrotation Zrotation
									JOINT rightMiddleIntermediate
									{
										OFFSET -3.699997 0.000000 0.000000
										CHANNELS 3 Xrotation Yrotation Zrotation
										JOINT rightMiddleDistal
										{
											OFFSET -2.949997 0.000000 0.000000
											CHANNELS 3 Xrotation Yrotation Zrotation
											JOINT rightHandMiddle4
											{
												OFFSET -2.946594 0.000000 0.000000
												CHANNELS 3 Xrotation Yrotation Zrotation
												End Site
												{
													OFFSET -2.946602 0.000000 -0.000982
												}
											}
										}
									}
								}
								JOINT rightRingProximal
								{
									OFFSET -9.103600 -0.043106 -1.865100
									CHANNELS 6 Xposition Yposition Zposition Xrotation Yrotation Zrotation
									JOINT rightRingIntermediate
									{
										OFFSET -3.379303 0.000000 0.000000
										CHANNELS 3 Xrotation Yrotation Zrotation
										JOINT rightRingDistal
										{
											OFFSET -2.889694 0.000000 0.000000
											CHANNELS 3 Xrotation Yrotation Zrotation
											JOINT rightHandRing4
											{
												OFFSET -2.638802 0.000000 0.000000
												CHANNELS 3 Xrotation Yrotation Zrotation
												End Site
												{
													OFFSET -2.638802 0.000000 0.004218
												}
											}
										}
									}
								}
								JOINT rightLittleProximal
								{
									OFFSET -8.076698 -0.486725 -3.806299
									CHANNELS 6 Xposition Yposition Zposition Xrotation Yrotation Zrotation
									JOINT rightLittleIntermediate
									{
										OFFSET -3.600006 0.000000 0.000000
										CHANNELS 3 Xrotation Yrotation Zrotation
										JOINT rightLittleDistal
										{
											OFFSET -2.099998 0.000000 0.000000
											CHANNELS 3 Xrotation Yrotation Zrotation
											JOINT rightHandPinky4
											{
												OFFSET -2.115791 0.000000 0.000000
												CHANNELS 3 Xrotation Yrotation Zrotation
												End Site
												{
													OFFSET -2.115799 0.000000 0.000174
												}
											}
										}
									}
								}
							}
						}
					}
				}
				JOINT leftShoulder
				{
					OFFSET 4.570400 11.014679 -2.160816
					CHANNELS 6 Xposition Yposition Zposition Xrotation Yrotation Zrotation
					JOINT leftUpperArm
					{
						OFFSET 10.592373 -0.524597 -2.232116
						CHANNELS 3 Xrotation Yrotation Zrotation
						JOINT leftLowerArm
						{
							OFFSET 27.841488 0.000000 0.000001
							CHANNELS 3 Xrotation Yrotation Zrotation
							JOINT leftHand
							{
								OFFSET 28.328808 0.000000 -0.000000
								CHANNELS 3 Xrotation Yrotation Zrotation
								JOINT leftThumbProximal
								{
									OFFSET 2.466103 -1.576202 2.681698
									CHANNELS 6 Xposition Yposition Zposition Xrotation Yrotation Zrotation
									JOINT leftThumbIntermediate
									{
										OFFSET 3.243317 -1.872528 1.872530
										CHANNELS 3 Xrotation Yrotation Zrotation
										JOINT leftThumbDistal
										{
											OFFSET 2.647881 -1.528763 1.528754
											CHANNELS 6 Xposition Yposition Zposition Xrotation Yrotation Zrotation
											JOINT leftHandThumb4
											{
												OFFSET 1.998924 -1.154083 1.154080
												CHANNELS 6 Xposition Yposition Zposition Xrotation Yrotation Zrotation
												End Site
												{
													OFFSET 1.884041 -1.149155 1.337651
												}
											}
										}
									}
								}
								JOINT leftIndexProximal
								{
									OFFSET 9.109299 -0.518005 2.259900
									CHANNELS 6 Xposition Yposition Zposition Xrotation Yrotation Zrotation
									JOINT leftIndexIntermediate
									{
										OFFSET 3.699997 0.000000 0.000000
										CHANNELS 3 Xrotation Yrotation Zrotation
										JOINT leftIndexDistal
										{
											OFFSET 2.850006 0.000000 0.000000
											CHANNELS 3 Xrotation Yrotation Zrotation
											JOINT leftHandIndex4
											{
												OFFSET 2.774895 0.000000 0.000000
												CHANNELS 3 Xrotation Yrotation Zrotation
												End Site
												{
													OFFSET 2.774902 0.000000 -0.000072
												}
											}
										}
									}
								}
								JOINT leftMiddleProximal
								{
									OFFSET 9.533401 0.000000 0.000000
									CHANNELS 6 Xposition Yposition Zposition Xrotation Yrotation Zrotation
									JOINT leftMiddleIntermediate
									{
										OFFSET 3.699997 0.000000 0.000000
										CHANNELS 3 Xrotation Yrotation Zrotation
										JOINT leftMiddleDistal
										{
											OFFSET 2.949997 0.000000 0.000000
											CHANNELS 3 Xrotation Yrotation Zrotation
											JOINT leftHandMiddle4
											{
												OFFSET 2.952896 0.000000 0.000000
												CHANNELS 3 Xrotation Yrotation Zrotation
												End Site
												{
													OFFSET 2.952904 0.000000 0.000165
												}
											}
										}
									}
								}
								JOINT leftRingProximal
								{
									OFFSET 9.104500 -0.042999 -1.865101
									CHANNELS 6 Xposition Yposition Zposition Xrotation Yrotation Zrotation
									JOINT leftRingIntermediate
									{
										OFFSET 3.149994 0.000000 0.000000
										CHANNELS 3 Xrotation Yrotation Zrotation
										JOINT leftRingDistal
										{
											OFFSET 2.950005 0.000000 0.000000
											CHANNELS 3 Xrotation Yrotation Zrotation
											JOINT leftHandRing4
											{
												OFFSET 2.644302 0.000000 0.000000
												CHANNELS 3 Xrotation Yrotation Zrotation
												End Site
												{
													OFFSET 2.644302 0.000000 0.000083
												}
											}
										}
									}
								}
								JOINT leftLittleProximal
								{
									OFFSET 8.077805 -0.486893 -3.806302
									CHANNELS 6 Xposition Yposition Zposition Xrotation Yrotation Zrotation
									JOINT leftLittleIntermediate
									{
										OFFSET 3.600006 0.000000 0.000000
										CHANNELS 3 Xrotation Yrotation Zrotation
										JOINT leftLittleDistal
										{
											OFFSET 2.099998 0.000000 0.000000
											CHANNELS 3 Xrotation Yrotation Zrotation
											JOINT leftHandPinky4
											{
												OFFSET 2.125496 0.000000 0.000000
												CHANNELS 3 Xrotation Yrotation Zrotation
												End Site
												{
													OFFSET 2.125504 0.000000 -0.001254
												}
											}
										}
									}
								}
							}
						}
					}
				}
			}
		}
	}
	JOINT rightUpperLeg
	{
		OFFSET -8.207800 -6.751701 -1.599544
		CHANNELS 6 Xposition Yposition Zposition Xrotation Yrotation Zrotation
		JOINT rightLowerLeg
		{
			OFFSET 0.000004 -44.370152 0.345934
			CHANNELS 3 Xrotation Yrotation Zrotation
			JOINT rightFoot
			{
				OFFSET 0.000004 -44.423664 -3.043535
				CHANNELS 3 Xrotation Yrotation Zrotation
				JOINT rightToes
				{
					OFFSET 0.000001 -8.728691 10.710592
					CHANNELS 3 Xrotation Yrotation Zrotation
					JOINT rightToesEnd
					{
						OFFSET 0.000000 -0.000665 9.278101
						CHANNELS 3 Xrotation Yrotation Zrotation
						End Site
						{
							OFFSET 0.000000 -0.000665 9.278103
						}
					}
				}
			}
		}
	}
	JOINT leftUpperLeg
	{
		OFFSET 8.207800 -6.751701 -1.599544
		CHANNELS 6 Xposition Yposition Zposition Xrotation Yrotation Zrotation
		JOINT leftLowerLeg
		{
			OFFSET 0.000004 -44.370037 0.346940
			CHANNELS 3 Xrotation Yrotation Zrotation
			JOINT leftFoot
			{
				OFFSET 0.000004 -44.423611 -3.044388
				CHANNELS 3 Xrotation Yrotation Zrotation
				JOINT leftToes
				{
					OFFSET 0.000001 -8.728690 10.710592
					CHANNELS 3 Xrotation Yrotation Zrotation
					JOINT leftToesEnd
					{
						OFFSET 0.000000 -0.000680 9.278101
						CHANNELS 3 Xrotation Yrotation Zrotation
						End Site
						{
							OFFSET 0.000000 -0.000680 9.278101
						}
					}
				}
			}
		}
	}
}
MOTION
Frames: 4
Frame Time: 0.033333
15.512536 89.478294 25.800867 -28.937357 -63.154183 -36.505486 -0.000000 10.181550 0.131522 21.683687 16.668214 14.129391 -2.273554 1.618541 1.838219 -2.254404 1.763933 1.713127 -0.000004 16.740370 -2.049018 -6.460828 -11.596269 -9.028650 -0.000000 9.617822 1.684979 -17.370754 -69.348584 -0.174968 -0.000001 22.037384 7.501070 -0.000001 0.000004 0.000001 -4.570003 11.014856 -2.160837 0.673831 0.662599 23.829181 -66.415503 21.199172 41.725475 -0.000026 29.968363 0.000036 -8.310609 15.517445 -13.795553 -2.464806 -1.573996 2.681901 -8.684440 -18.718594 -33.578419 4.662177 -5.217348 1.084961 -2.646279 -1.527809 1.527812 -3.072687 0.750412 -2.823523 -1.994597 -1.151582 1.151572 0.000001 -0.000003 -0.000000 -9.108296 -0.517869 2.259793 2.255611 12.006443 -10.676041 -0.000003 -0.000001 0.000005 0.031664 -0.664308 5.459663 -0.000001 -0.000001 0.000002 -9.532498 0.000001 -0.000006 0.198476 2.641768 -4.709303 0.068940 -0.978833 8.059479 0.002374 -0.181551 1.489904 -0.000000 0.000001 0.000000 -9.103601 -0.043104 -1.865112 -0.015176 0.096938 -4.678562 0.020010 -0.528164 4.338236 0.002361 -0.181546 1.489904 -0.000000 0.000001 0.000000 -8.076698 -0.486741 -3.806304 -0.040918 0.461749 -11.052201 -0.000000 0.000000 0.000001 0.004360 -0.246459 2.022845 0.000000 -0.000000 -0.000000 4.570399 11.014684 -2.160813 -0.525365 4.131504 6.928595 36.783055 -39.522179 -64.140531 0.000001 -27.901965 -0.000005 10.380255 9.717144 -8.292697 2.466108 -1.576221 2.681696 -6.840163 6.837173 3.462596 3.246845 3.314376 -0.611816 2.647890 -1.528740 1.528763 -1.754148 -9.159465 3.287693 1.998925 -1.154089 1.154066 -0.000001 0.000001 -0.000000 9.109305 -0.518012 2.259896 -4.646193 -10.975365 -21.842576 0.070555 0.985250 -8.192722 0.005350 -0.271827 2.253084 0.000000 -0.000001 0.000000 9.533405 0.000009 -0.000004 -0.586522 -2.532516 -10.712059 0.129662 1.332650 -11.114185 0.129287 1.330753 -11.098190 0.000001 -0.000002 0.000005 9.104506 -0.043005 -1.865105 0.462941 2.853186 -12.343922 0.129274 1.330755 -11.098181 0.098340 1.161995 -9.675888 -0.000001 0.000003 -0.000001 8.077810 -0.486879 -3.806306 1.180021 9.032042 -7.369164 0.097631 -2.855444 -10.496766 0.168395 1.516554 -12.672619 -0.000000 -0.000001 -0.000000 -8.207794 -6.751727 -1.599540 -27.075754 -18.432869 10.316493 52.207620 -9.634948 10.122794 -8.196130 -21.338105 -20.213813 -12.697395 -0.000007 0.000003 -0.000000 0.000000 0.000000 8.207799 -6.751713 -1.599545 -8.556332 3.415199 12.424264 66.617424 -9.593758 0.121365 -32.267060 -0.553425 4.397342 -12.162229 -0.107270 2.280096 -0.000000 -0.000000 0.000000 
15.981953 89.482735 26.372288 -44.373164 -67.667231 -49.446608 -0.000001 10.181567 0.131523 26.988132 18.181347 11.577278 -1.806009 1.857193 1.425699 -1.775327 1.976713 1.279322 0.000001 16.740383 -2.049021 -6.793816 -11.095311 -9.517711 -0.000000 9.617851 1.684980 -16.940952 -67.728805 1.396290 -0.000000 22.037369 7.501076 -0.000000 0.000002 0.000000 -4.569998 11.014872 -2.160840 0.266248 4.415752 20.998426 -65.357855 16.937016 42.600515 -0.000017 29.992375 0.000033 -10.173444 13.779494 -14.923092 -2.464793 -1.573987 2.681918 -8.873666 -18.148793 -33.711099 4.662205 -5.217367 1.084944 -2.646258 -1.527815 1.527814 -3.076547 0.762917 -2.825275 -1.994590 -1.151572 1.151582 0.000003 -0.000000 -0.000000 -9.108301 -0.517874 2.259808 2.317690 12.325199 -10.652859 0.000000 -0.000001 0.000004 0.032282 -0.670643 5.511942 0.000001 0.000002 0.000000 -9.532499 0.000010 0.000004 0.210220 2.783320 -4.694231 0.068941 -0.978841 8.059483 0.002623 -0.191111 1.568211 -0.000000 -0.000000 -0.000001 -9.103598 -0.043095 -1.865092 -0.015190 0.095392 -4.666081 0.020117 -0.529456 4.348734 0.002621 -0.191081 1.568212 -0.000000 0.000000 0.000001 -8.076694 -0.486742 -3.806298 -0.041222 0.457240 -11.015710 0.000001 -0.000002 0.000008 0.004401 -0.247796 2.033711 0.000000 -0.000001 -0.000000 4.570401 11.014689 -2.160814 -0.472976 4.243649 5.928357 34.616614 -40.899074 -63.993927 0.000005 -26.165775 0.000003 9.993436 6.549623 -4.665142 2.466101 -1.576208 2.681694 -6.983427 6.810077 3.457020 3.263326 3.352838 -0.449154 2.647894 -1.528735 1.528752 -1.959918 -9.341540 3.344521 1.998917 -1.154065 1.154076 0.000001 -0.000001 -0.000000 9.109309 -0.518007 2.259893 -4.359399 -10.795298 -20.970528 0.070570 0.985253 -8.192719 0.004725 -0.255415 2.116964 -0.000001 0.000000 0.000000 9.533410 0.000007 -0.000003 -0.558874 -2.467671 -10.472424 0.126620 1.317182 -10.983483 0.126261 1.315281 -10.967490 0.000001 -0.000002 -0.000002 9.104502 -0.043016 -1.865106 0.380635 2.694472 -10.372160 0.126260 1.315274 -10.967497 0.096286 1.149894 -9.574100 -0.000002 0.000001 -0.000000 8.077811 -0.486901 -3.806304 0.720099 8.883949 -4.287819 0.145354 -2.620819 -12.478545 0.172249 1.533644 -12.817681 -0.000000 0.000001 -0.000001 -8.207803 -6.751698 -1.599541 -26.897843 -16.703513 9.267858 54.893373 -9.550197 9.968283 2.799099 -17.498793 -14.735769 -19.618398 -0.048242 0.680841 -0.000000 -0.000000 -0.000000 8.207796 -6.751687 -1.599548 -3.722834 3.474442 9.225531 62.398149 -6.340584 -4.727362 -36.199425 -2.570767 7.565101 -7.333099 -0.000951 0.066906 -0.000000 0.000000 0.000000 
16.612499 89.719971 26.897993 -62.131000 -70.603283 -64.596384 -0.000003 10.181556 0.131524 31.170583 18.732496 9.198456 -1.253526 2.060928 0.490799 -1.199152 2.117431 0.333985 0.000002 16.740362 -2.049017 -7.160865 -10.734826 -9.837062 0.000001 9.617801 1.684981 -15.750143 -66.635326 3.957243 0.000004 22.037369 7.501076 -0.000000 -0.000003 -0.000001 -4.570000 11.014881 -2.160840 0.186156 7.548898 18.216266 -63.467839 13.504916 43.887985 0.000014 29.940011 0.000017 -11.672039 12.593962 -15.818769 -2.464788 -1.574001 2.681921 -9.149692 -17.305623 -33.869409 4.662171 -5.217333 1.084958 -2.646259 -1.527819 1.527810 -3.089157 0.803613 -2.827162 -1.994598 -1.151596 1.151575 -0.000000 -0.000002 0.000003 -9.108298 -0.517883 2.259808 2.371257 12.606226 -10.627185 0.000000 -0.000001 -0.000000 0.034698 -0.695149 5.713902 -0.000000 0.000003 0.000001 -9.532495 0.000022 0.000005 0.220386 2.907996 -4.678257 0.068944 -0.978861 8.059476 0.003718 -0.227937 1.870723 -0.000000 0.000001 -0.000001 -9.103586 -0.043089 -1.865093 -0.015204 0.094891 -4.662086 0.020127 -0.529866 4.352096 0.003720 -0.227942 1.870716 -0.000000 0.000000 0.000000 -8.076687 -0.486716 -3.806282 -0.041314 0.455787 -11.004046 -0.000002 -0.000005 0.000016 0.004426 -0.248320 2.038123 0.000000 -0.000001 0.000002 4.570399 11.014684 -2.160814 -0.368878 4.166541 4.618512 33.281101 -41.961421 -62.838253 -0.000008 -24.328178 0.000006 10.027403 3.800267 -1.583178 2.466088 -1.576209 2.681686 -7.464094 6.282614 3.240959 3.627706 3.867534 -0.165203 2.647872 -1.528741 1.528757 -1.765349 -9.130894 3.438195 1.998917 -1.154094 1.154067 0.000003 0.000002 0.000003 9.109301 -0.518010 2.259889 -4.035141 -10.792487 -19.678335 0.070543 0.985261 -8.192715 0.003483 -0.219290 1.817309 -0.000001 0.000001 -0.000000 9.533420 0.000009 -0.000008 -0.531567 -2.446344 -10.111700 0.122013 1.293190 -10.781080 0.121666 1.291314 -10.765083 0.000000 0.000006 -0.000004 9.104517 -0.042999 -1.865105 0.227470 2.328840 -6.662194 0.121652 1.291301 -10.765089 0.093162 1.131148 -9.416460 0.000001 -0.000002 0.000001 8.077818 -0.486886 -3.806313 -0.142125 8.384196 1.495967 0.264148 -2.160124 -16.416343 0.180530 1.569562 -13.123515 0.000001 -0.000003 0.000000 -8.207802 -6.751701 -1.599539 -27.954721 -15.279900 6.835806 58.069934 -9.511408 9.939437 9.068808 -12.103344 -8.690640 -21.535298 0.288143 -5.337140 -0.000000 0.000000 0.000000 8.207799 -6.751696 -1.599546 -0.210244 3.781477 5.423822 58.286464 -3.269927 -8.593756 -38.902258 -3.260065 8.383682 -3.858257 -0.000023 0.000003 0.000000 -0.000001 0.000000 
17.512630 90.279968 27.377876 -78.180012 -72.944119 -77.495497 -0.000000 10.181540 0.131529 33.059536 17.472688 7.413757 -0.543938 2.181665 -1.359507 -0.444649 2.108114 -1.505208 0.000002 16.740374 -2.049029 -7.562509 -10.652449 -9.831504 0.000002 9.617845 1.684971 -13.199548 -66.541171 8.247477 0.000004 22.037369 7.501069 -0.000001 0.000001 -0.000000 -4.570000 11.014865 -2.160847 0.289639 9.384538 15.410700 -60.242426 11.534796 45.706420 0.000012 29.873038 0.000024 -12.063503 12.257950 -15.828396 -2.464788 -1.573992 2.681926 -9.293006 -16.876460 -33.886307 4.662187 -5.217343 1.084939 -2.646262 -1.527805 1.527820 -3.105860 0.857323 -2.827090 -1.994590 -1.151586 1.151569 -0.000000 -0.000005 -0.000000 -9.108292 -0.517868 2.259815 2.342956 12.475138 -10.622488 -0.000000 0.000001 0.000004 0.038020 -0.727731 5.982644 -0.000000 -0.000000 0.000001 -9.532501 0.000005 0.000008 0.215288 2.849455 -4.677520 0.068972 -0.978855 8.059476 0.005499 -0.276954 2.273243 0.000000 -0.000000 0.000002 -9.103600 -0.043102 -1.865098 -0.015164 0.098244 -4.689566 0.019916 -0.527042 4.328994 0.005497 -0.276963 2.273239 -0.000000 -0.000000 -0.000000 -8.076698 -0.486717 -3.806292 -0.040677 0.465636 -11.084346 -0.000002 0.000007 0.000011 0.004372 -0.246471 2.022857 0.000000 -0.000000 0.000002 4.570401 11.014670 -2.160821 -0.195747 3.729293 2.793960 33.859375 -42.321034 -59.520850 -0.000008 -22.701240 -0.000003 10.272564 2.152540 0.294790 2.466105 -1.576209 2.681697 -8.106893 5.285305 2.415430 4.382182 4.897536 0.018086 2.647888 -1.528751 1.528749 -0.822171 -8.209852 3.507308 1.998917 -1.154108 1.154074 0.000001 0.000000 0.000003 9.109299 -0.518012 2.259898 -4.023560 -11.339939 -18.958182 0.070540 0.985242 -8.192711 0.002432 -0.183561 1.521153 -0.000002 0.000002 -0.000002 9.533405 0.000011 -0.000001 -0.541014 -2.585067 -9.900468 0.119104 1.277841 -10.651424 0.118754 1.275936 -10.635437 0.000004 0.000002 -0.000002 9.104488 -0.042992 -1.865101 0.134906 2.035398 -4.261379 0.118757 1.275929 -10.635422 0.091171 1.119139 -9.315487 -0.000002 0.000001 -0.000000 8.077801 -0.486894 -3.806300 -0.668463 7.882145 5.223607 0.389398 -1.776758 -19.754217 0.188226 1.602164 -13.401238 -0.000001 0.000003 -0.000003 -8.207796 -6.751719 -1.599541 -30.662413 -14.436973 2.138314 60.537182 -9.411613 9.920755 11.273879 -5.163109 -0.229862 -21.468091 0.422376 -6.299734 0.000000 -0.000001 0.000001 8.207801 -6.751709 -1.599544 0.733850 4.715572 0.339662 54.721160 0.184694 -10.079040 -38.937092 -2.608320 8.544039 -2.897507 0.000017 -0.000005 0.000000 0.000001 0.000000 
